<?xml version="1.0" encoding="UTF-8"?>
<svg width="323px" height="85px" viewBox="0 0 323 85" version="1.1" xmlns="http://www.w3.org/2000/svg" xmlns:xlink="http://www.w3.org/1999/xlink">
    <!-- Generator: Sketch 51.2 (57519) - http://www.bohemiancoding.com/sketch -->
    <title>Logo blue</title>
    <desc>Created with Sketch.</desc>
    <defs></defs>
    <g id="Logo-blue" stroke="none" stroke-width="1" fill="none" fill-rule="evenodd">
        <rect fill="#FFFFFF" x="0" y="0" width="323" height="85"></rect>
        <g id="finances" fill-rule="nonzero">
            <polygon id="Shape" fill-opacity="0.7" fill="#1084FE" points="58.5456055 27 0 64.1304726 36.4543945 85 59.8728223 70.1479231 64.3751172 62.7217912 71.5817578 62.7217912 95 47.8697143"></polygon>
            <polygon id="Shape" fill-opacity="0.7" fill="#1084FE" points="58.5456055 18 0 55.130353 36.4543945 76 95 38.869647"></polygon>
            <polygon id="Shape" fill-opacity="0.7" fill="#1084FE" points="58.5456055 9 0 46.130353 36.4543945 67 95 29.869647"></polygon>
            <polygon id="Shape" fill-opacity="0.7" fill="#1084FE" points="58.5456055 0 35.1275488 14.8520769 35.1275488 22.2782088 23.4182422 22.2782088 0 37.1302857 36.4543945 58 95 20.8695274"></polygon>
            <polygon id="Shape" fill="#FFFFFF" points="34.6699982 15 24 22.3752312 60.3304466 43.1018988 66.1653157 44 71 35.7264821"></polygon>
            <polygon id="Shape" fill="#DCE8FF" points="60 43.29034 60 70 71 62.7098435 71 36"></polygon>
        </g>
        <path d="M129.849884,54.9492188 L123,54.9492188 L123,22.1113281 L141.820336,22.1113281 L141.820336,27.8164062 L129.849884,27.8164062 L129.849884,36.2841797 L140.989366,36.2841797 L140.989366,41.9667969 L129.849884,41.9667969 L129.849884,54.9492188 Z M160.102641,34.2402344 C158.650309,34.2402344 157.512416,34.700679 156.688928,35.621582 C155.865441,36.5424851 155.393814,37.8489499 155.274034,39.5410156 L164.88633,39.5410156 C164.856385,37.8489499 164.414703,36.5424851 163.561271,35.621582 C162.707838,34.700679 161.554973,34.2402344 160.102641,34.2402344 Z M161.068362,55.3984375 C157.025788,55.3984375 153.866638,54.2828888 151.590818,52.0517578 C149.314999,49.8206269 148.177106,46.6611533 148.177106,42.5732422 C148.177106,38.3655389 149.228908,35.1124789 151.332544,32.8139648 C153.43618,30.5154507 156.344544,29.3662109 160.057724,29.3662109 C163.606206,29.3662109 166.36859,30.376943 168.34496,32.3984375 C170.321329,34.419932 171.3095,37.2125473 171.3095,40.7763672 L171.3095,44.1005859 L155.116824,44.1005859 C155.191686,46.0472103 155.768119,47.5670518 156.846139,48.6601562 C157.924159,49.7532607 159.436358,50.2998047 161.382783,50.2998047 C162.895005,50.2998047 164.324857,50.1425797 165.672382,49.828125 C167.019907,49.5136703 168.427301,49.0120477 169.894606,48.3232422 L169.894606,53.6240234 C168.696806,54.2229848 167.416676,54.6684556 166.054179,54.9604492 C164.691682,55.2524429 163.029759,55.3984375 161.068362,55.3984375 Z M186.829392,55.3984375 C183.87981,55.3984375 181.562851,54.2529411 179.878445,51.9619141 C178.194039,49.670887 177.351849,46.4964396 177.351849,42.4384766 C177.351849,38.3206174 178.209011,35.1124789 179.923362,32.8139648 C181.637713,30.5154507 183.999589,29.3662109 187.009062,29.3662109 C190.168259,29.3662109 192.578795,30.5940632 194.240742,33.0498047 L194.465328,33.0498047 C194.120961,31.1780505 193.94878,29.5084709 193.94878,28.0410156 L193.94878,20 L200.821122,20 L200.821122,54.9492188 L195.565801,54.9492188 L194.240742,51.6923828 L193.94878,51.6923828 C192.39164,54.1630983 190.018535,55.3984375 186.829392,55.3984375 Z M189.232466,49.9404297 C190.984249,49.9404297 192.268121,49.4313202 193.084122,48.4130859 C193.900123,47.3948517 194.345549,45.6653768 194.420411,43.2246094 L194.420411,42.4833984 C194.420411,39.7880725 194.00493,37.8564512 193.173957,36.6884766 C192.342983,35.520502 190.991735,34.9365234 189.120173,34.9365234 C187.592978,34.9365234 186.406426,35.5841407 185.56048,36.8793945 C184.714534,38.1746484 184.291567,40.0576048 184.291567,42.5283203 C184.291567,44.9990358 184.718277,46.8520446 185.571709,48.0874023 C186.425141,49.3227601 187.645382,49.9404297 189.232466,49.9404297 Z M225.930852,54.9492188 L224.605792,51.5351562 L224.426123,51.5351562 C223.273241,52.9876375 222.086688,53.9946261 220.86643,54.5561523 C219.646171,55.1176786 218.055367,55.3984375 216.09397,55.3984375 C213.683398,55.3984375 211.785662,54.7096423 210.400706,53.3320312 C209.01575,51.9544202 208.323282,49.9928513 208.323282,47.4472656 C208.323282,44.7818877 209.255306,42.8165753 211.119382,41.5512695 C212.983458,40.2859637 215.794503,39.5859382 219.5526,39.4511719 L223.909575,39.3164062 L223.909575,38.2158203 C223.909575,35.6702347 222.606987,34.3974609 220.001772,34.3974609 C217.995458,34.3974609 215.637325,35.0039002 212.927302,36.2167969 L210.65898,31.5898438 C213.548672,30.0774664 216.752739,29.3212891 220.271276,29.3212891 C223.640088,29.3212891 226.222805,30.0550057 228.019505,31.5224609 C229.816205,32.9899162 230.714541,35.2210137 230.714541,38.2158203 L230.714541,54.9492188 L225.930852,54.9492188 Z M223.909575,43.3144531 L221.259456,43.4042969 C219.268114,43.464193 217.785859,43.8235644 216.812646,44.4824219 C215.839434,45.1412793 215.352835,46.1445245 215.352835,47.4921875 C215.352835,49.4238378 216.460783,50.3896484 218.676713,50.3896484 C220.263798,50.3896484 221.532698,49.9329473 222.483451,49.0195312 C223.434205,48.1061152 223.909575,46.8932367 223.909575,45.3808594 L223.909575,43.3144531 Z M247.267531,37.5644531 L249.558312,37.5644531 C251.699379,37.5644531 253.301412,37.141443 254.36446,36.2954102 C255.427507,35.4493773 255.959023,34.2177815 255.959023,32.6005859 C255.959023,30.9684163 255.513598,29.7630247 254.622734,28.984375 C253.73187,28.2057253 252.335706,27.8164062 250.434199,27.8164062 L247.267531,27.8164062 L247.267531,37.5644531 Z M262.988575,32.3535156 C262.988575,35.8873875 261.88437,38.5901599 259.675927,40.4619141 C257.467483,42.3336682 254.327049,43.2695312 250.25453,43.2695312 L247.267531,43.2695312 L247.267531,54.9492188 L240.305354,54.9492188 L240.305354,22.1113281 L250.793537,22.1113281 C254.776221,22.1113281 257.804364,22.9685787 259.878054,24.6831055 C261.951745,26.3976323 262.988575,28.9544101 262.988575,32.3535156 Z M286.593577,54.9492188 L285.268517,51.5351562 L285.088848,51.5351562 C283.935966,52.9876375 282.749413,53.9946261 281.529155,54.5561523 C280.308896,55.1176786 278.718092,55.3984375 276.756695,55.3984375 C274.346123,55.3984375 272.448387,54.7096423 271.063431,53.3320312 C269.678475,51.9544202 268.986007,49.9928513 268.986007,47.4472656 C268.986007,44.7818877 269.918031,42.8165753 271.782107,41.5512695 C273.646183,40.2859637 276.457228,39.5859382 280.215325,39.4511719 L284.5723,39.3164062 L284.5723,38.2158203 C284.5723,35.6702347 283.269712,34.3974609 280.664497,34.3974609 C278.658183,34.3974609 276.30005,35.0039002 273.590027,36.2167969 L271.321705,31.5898438 C274.211397,30.0774664 277.415464,29.3212891 280.934001,29.3212891 C284.302813,29.3212891 286.88553,30.0550057 288.68223,31.5224609 C290.47893,32.9899162 291.377266,35.2210137 291.377266,38.2158203 L291.377266,54.9492188 L286.593577,54.9492188 Z M284.5723,43.3144531 L281.922181,43.4042969 C279.930839,43.464193 278.448584,43.8235644 277.475371,44.4824219 C276.502159,45.1412793 276.01556,46.1445245 276.01556,47.4921875 C276.01556,49.4238378 277.123508,50.3896484 279.339438,50.3896484 C280.926523,50.3896484 282.195423,49.9329473 283.146176,49.0195312 C284.09693,48.1061152 284.5723,46.8932367 284.5723,45.3808594 L284.5723,43.3144531 Z M296.835691,29.8378906 L304.336875,29.8378906 L309.075647,43.9658203 C309.479904,45.193691 309.756891,46.6461505 309.906616,48.3232422 L310.041368,48.3232422 C310.206065,46.7809168 310.527969,45.3284573 311.007089,43.9658203 L315.656026,29.8378906 L323,29.8378906 L312.377066,58.1611328 C311.403853,60.7815886 310.015175,62.7431575 308.210989,64.0458984 C306.406803,65.3486393 304.299456,66 301.888883,66 C300.706056,66 299.545705,65.8727226 298.407795,65.6181641 L298.407795,60.1826172 C299.231282,60.3772796 300.129619,60.4746094 301.102831,60.4746094 C302.315604,60.4746094 303.374892,60.1040076 304.280728,59.362793 C305.186564,58.6215783 305.894004,57.5022861 306.403069,56.0048828 L306.807324,54.7695312 L296.835691,29.8378906 Z" id="FedaPay-outline" fill="#1084FE"></path>
    </g>
</svg>